# xmcd CD database file
#
# Track frame offsets:
#	150
#	27910
#	48344
#	115257
#	184408
#	195914
#	206689
#	224957
#
# Disc length: 3371 seconds
#
# Revision: 0
# Processed by: cddbd v1.4PL0 Copyright (c) Steve Scherf et al.
# Submitted via: CDex 1.50beta9
#
DISCID=790d2908
DTITLE=Eddie Harris - The Lost Album Plus The Better Half
DYEAR=1900
DGENRE=Jazz
TTITLE0=The Dancing Bull
TTITLE1=Antidote
TTITLE2=Cuttin' Out
TTITLE3=Shakey Jake
TTITLE4=Half and Half
TTITLE5=K.C. Blues
TTITLE6=Lawrence Of Arabia
TTITLE7=Yea, Yea, Yea
EXTD=
EXTT0=
EXTT1=
EXTT2=
EXTT3=
EXTT4=
EXTT5=
EXTT6=
EXTT7=
PLAYORDER=
